<?xml version="1.0" encoding="utf-8"?>
<!-- Generator: Adobe Illustrator 28.2.0, SVG Export Plug-In . SVG Version: 6.00 Build 0)  -->
<svg version="1.1" id="SI_VIS_PACEM_PARA_BELLUM" xmlns="http://www.w3.org/2000/svg" xmlns:xlink="http://www.w3.org/1999/xlink"
	 x="0px" y="0px" viewBox="0 0 864 864" style="enable-background:new 0 0 864 864;" xml:space="preserve">
<style type="text/css">
	.st0{fill:#FFFFFF;}
</style>
<g>
	<path class="st0" d="M351.06,472.46c-0.93,0.13-1.85,0.3-2.76,0.49c-0.71,0.15-1.45,0.24-2.12,0.66c0.53,0.41,1.02,0.82,1.53,1.19
		c0.48,0.34,0.82,0.78,1.01,1.34c0.2,0.58,0.54,1.08,1,1.48c0.42,0.36,0.83,0.73,1.29,1.04c1.77,1.24,3.78,1.92,5.85,2.42
		c3.08,0.74,6.23,1.07,9.37,1.38c1.88,0.19,3.77,0.27,5.66,0.32c1.79,0.05,3.58,0.03,5.37-0.03c2.22-0.08,4.44-0.24,6.66-0.37
		c2.32-0.14,4.63-0.35,6.92-0.81c2.85-0.57,5.52-1.56,7.98-3.14c0.82-0.53,1.5-1.18,1.95-2.04c0.46-0.86,1.04-1.64,1.72-2.34
		c0.11-0.11,0.2-0.24,0.36-0.42c-1.52-0.29-2.94-0.55-4.35-0.82c-0.89-2.5-23.17-76.1-23.17-76.57c1.18-0.16,2.18-0.69,3.01-1.59
		c0.46,0.24,0.91,0.46,1.34,0.71c0.75,0.42,1.54,0.74,2.37,0.96c1.72,0.46,3.48,0.61,5.26,0.57c1.32-0.03,2.64-0.14,3.93-0.42
		c2.15-0.46,4.22-1.15,6.29-1.89c2.19-0.78,4.36-1.6,6.58-2.29c3.86-1.22,7.8-1.66,11.84-1.08c2.79,0.4,5.45,1.21,7.94,2.52
		c0.5,0.26,1,0.57,1.4,0.96c0.92,0.88,1.78,1.82,2.66,2.73c0.14,0.15,0.17,0.31,0.15,0.5c-0.05,0.48-0.1,0.97-0.12,1.45
		c-0.08,2.53,0.56,4.83,2.2,6.81c0.05,0.06,0.08,0.13,0.13,0.21c-0.2,0.1-0.36,0.18-0.52,0.26c-0.74,0.38-1.39,0.87-1.92,1.51
		c-0.66,0.79-0.54,1.61,0.32,2.17c0.32,0.21,0.67,0.39,1,0.58c0.46,0.27,0.68,0.64,0.66,1.19c-0.04,1.61-0.04,3.21-0.04,4.82
		c-0.01,2.28-0.01,4.55-0.02,6.83c-0.01,3.56-0.02,7.13-0.01,10.69c0,0.64-0.1,1.21-0.4,1.81c-0.8,1.55-0.72,3.06,0.51,4.41
		c0.04,0.05,0.07,0.11,0.1,0.17c-0.15,0.14-0.29,0.26-0.42,0.38c-1.57,1.46-1.89,3.47-0.84,5.34c0.12,0.22,0.24,0.45,0.4,0.63
		c0.21,0.24,0.22,0.46,0.06,0.72c-0.04,0.07-0.06,0.16-0.1,0.23c-0.23,0.45-0.15,0.87,0.14,1.27c0.09,0.12,0.17,0.25,0.27,0.36
		c0.51,0.52,0.62,1.14,0.59,1.84c-0.11,2.19-0.19,4.38-0.27,6.56c-0.06,1.47-0.13,2.94-0.14,4.41c0,0.55-0.16,0.9-0.6,1.26
		c-0.85,0.7-0.9,1.66-0.21,2.53c0.23,0.29,0.52,0.52,0.78,0.78c0.09,0.09,0.19,0.17,0.28,0.26c-0.31,0.28-0.61,0.52-0.86,0.81
		c-0.67,0.77-0.63,1.6,0.09,2.32c0.16,0.16,0.35,0.31,0.53,0.46c-0.11,0.4-0.22,0.78-0.31,1.17c-0.47,2.02-0.58,4.03,0.18,6.02
		c0.13,0.34,0.15,0.71,0.08,1.09c-0.11,0.61-0.36,1.15-0.7,1.65c-0.36,0.54-0.77,1.05-1.14,1.59c-0.35,0.51-0.7,1.02-1,1.56
		c-0.35,0.63-0.27,1.26,0.21,1.82c0.2,0.24,0.43,0.45,0.65,0.68c-0.04,0.05-0.07,0.09-0.1,0.12c-0.1,0.08-0.21,0.16-0.32,0.24
		c-1.34,0.98-2.8,1.77-4.29,2.48c-1.27,0.61-2.57,1.1-3.95,1.41c-2.01,0.45-3.97,1.06-5.83,1.96c-0.74,0.36-1.44,0.78-2.07,1.31
		c-0.48,0.4-0.59,0.89-0.52,1.48c0.13,0.99,0.67,1.73,1.43,2.33c0.89,0.71,1.91,1.16,2.97,1.53c2.95,1.01,6.01,1.43,9.1,1.7
		c1.75,0.16,3.5,0.22,5.26,0.33c0.09,0.01,0.19,0.05,0.28,0.08c3.15,0,6.29,0,9.44,0c0.09-0.03,0.19-0.07,0.28-0.08
		c1.7-0.14,3.4-0.25,5.1-0.42c2.1-0.21,4.17-0.57,6.21-1.12c1.55-0.42,3.07-0.94,4.44-1.81c0.6-0.38,1.13-0.83,1.56-1.4
		c0.2-0.26,0.31-0.55,0.27-0.89c-0.07-0.68-0.26-1.31-0.75-1.82c-0.54-0.56-1.18-0.98-1.87-1.34c-1.83-0.96-3.8-1.57-5.79-2.08
		c-0.89-0.23-1.8-0.39-2.68-0.66c-2.25-0.7-4.34-1.74-6.29-3.06c-0.14-0.09-0.26-0.2-0.46-0.35c0.11-0.08,0.2-0.13,0.28-0.19
		c0.79-0.65,0.9-1.55,0.49-2.4c-0.2-0.42-0.47-0.81-0.74-1.19c-0.35-0.49-0.76-0.94-1.1-1.43c-0.28-0.41-0.54-0.85-0.74-1.3
		c-0.25-0.55-0.24-1.12-0.05-1.71c0.2-0.63,0.38-1.28,0.49-1.94c0.29-1.77,0.17-3.5-0.66-5.13c-0.03-0.06-0.03-0.12-0.04-0.13
		c0.16-0.17,0.28-0.31,0.4-0.44c0.56-0.62,0.65-1.37,0.23-2.08c-0.14-0.24-0.33-0.46-0.53-0.67c-0.2-0.22-0.43-0.41-0.67-0.63
		c0.15-0.13,0.28-0.22,0.39-0.34c0.28-0.31,0.6-0.59,0.83-0.94c0.61-0.92,0.47-1.78-0.36-2.5c-0.24-0.21-0.5-0.38-0.77-0.58
		c0-0.08,0-0.16,0-0.25c0.04-2.11,0.05-4.21,0.11-6.32c0.04-1.52,0.14-3.04,0.21-4.56c0.04-0.81,0.26-1.54,0.83-2.15
		c0.09-0.1,0.17-0.21,0.24-0.32c0.37-0.56,0.35-0.99-0.08-1.51c-0.13-0.16-0.28-0.31-0.42-0.47c2.12-2.24,1.44-5.78-1.15-6.73
		c0.12-0.13,0.23-0.25,0.35-0.37c0.91-0.98,1.11-2.28,0.5-3.48c-0.18-0.36-0.4-0.7-0.66-1c-0.24-0.28-0.32-0.56-0.31-0.91
		c0.03-1.17,0.06-2.34,0.07-3.51c0.04-3.9,0.07-7.79,0.1-11.69c0.02-2.49,0.04-4.99,0.03-7.48c0-0.72,0.28-1.21,0.92-1.53
		c0.27-0.13,0.54-0.28,0.78-0.45c0.54-0.37,0.7-0.95,0.41-1.54c-0.12-0.25-0.3-0.48-0.49-0.69c-0.49-0.52-1.09-0.88-1.71-1.21
		c-0.26-0.14-0.53-0.28-0.79-0.42c0.04-0.08,0.06-0.12,0.09-0.16c1.87-2.42,2.8-5.14,2.61-8.22c-0.01-0.2,0.05-0.35,0.2-0.48
		c0.13-0.11,0.24-0.23,0.37-0.34c1.16-1.08,2.31-2.18,3.49-3.24c0.36-0.32,0.77-0.59,1.21-0.8c3.69-1.73,7.56-2.11,11.56-1.46
		c1.97,0.32,3.89,0.82,5.79,1.4c2.65,0.81,5.3,1.64,7.96,2.42c2.95,0.87,5.95,1.23,9.02,0.86c2.64-0.32,5.19-0.96,7.61-2.08
		c0.12-0.05,0.24-0.1,0.37-0.15c0.83,1.04,1.91,1.62,3.2,1.83c-0.05,0.2-0.09,0.35-0.13,0.49c-2.59,8.8-5.18,17.61-7.77,26.41
		c-4.03,13.69-8.06,27.39-12.08,41.08c-0.76,2.58-1.52,5.16-2.27,7.75c-0.1,0.36-0.24,0.55-0.66,0.59c-0.8,0.08-1.59,0.24-2.37,0.41
		c-0.81,0.18-1.66,0.25-2.43,0.73c0.49,0.38,0.93,0.76,1.41,1.09c0.58,0.4,0.94,0.92,1.2,1.56c0.14,0.35,0.34,0.7,0.59,0.97
		c0.42,0.45,0.89,0.86,1.38,1.23c1.59,1.19,3.42,1.88,5.32,2.39c2.05,0.56,4.15,0.86,6.26,1.14c2.94,0.38,5.88,0.71,8.84,0.76
		c1.92,0.03,3.85,0.05,5.77-0.02c2.24-0.07,4.47-0.24,6.71-0.36c2.2-0.13,4.4-0.32,6.58-0.71c2.72-0.49,5.3-1.35,7.72-2.72
		c1.34-0.76,2.45-1.71,3.14-3.13c0.4-0.82,1.05-1.45,1.7-2.08c0-0.07,0-0.13,0-0.2c-0.11,0.02-0.23,0.06-0.33,0.04
		c-0.74-0.14-1.47-0.31-2.21-0.45c-0.59-0.11-1.18-0.21-1.78-0.31c-7.77-25.58-15.52-51.13-23.28-76.68
		c3.17-0.76,4.22-3.37,3.91-5.47c-0.32-2.13-2.23-3.86-4.43-3.96c-1.12-0.05-2.16,0.25-3.06,0.94c-1.22,0.93-1.84,2.18-1.91,3.74
		c-0.61,0.15-1.18,0.32-1.77,0.43c-0.85,0.16-1.72,0.25-2.57,0.42c-1.84,0.38-3.69,0.39-5.54,0.14c-2.01-0.27-3.97-0.8-5.86-1.51
		c-2.39-0.9-4.77-1.84-7.15-2.79c-3.27-1.31-6.61-2.34-10.15-2.62c-3.3-0.27-6.51,0.06-9.64,1.14c-2.27,0.78-4.42,1.83-6.52,2.97
		c-0.16,0.08-0.32,0.16-0.51,0.26c-0.12-0.89,0.1-1.65,0.43-2.39c0.41-0.94,0.99-1.78,1.59-2.61c0.52-0.72,1.05-1.43,1.54-2.17
		c0.7-1.08,1.03-2.28,1.03-3.56c0-1.1-0.22-2.16-0.56-3.2c-0.48-1.48-1.18-2.87-1.83-4.29c-1.09-2.39-2.14-4.79-3.21-7.19
		c-0.25-0.56-0.51-1.11-0.81-1.77c-0.1,0.26-0.17,0.43-0.23,0.6c-1.21,3.22-2.48,6.42-3.93,9.55c-0.47,1.01-0.95,2.03-1.32,3.09
		c-0.79,2.24-0.56,4.42,0.58,6.49c0.35,0.63,0.76,1.22,1.15,1.82c0.39,0.6,0.81,1.19,1.17,1.81c0.41,0.68,0.67,1.42,0.68,2.23
		c0,0.49,0,0.99-0.24,1.46c-0.18-0.06-0.34-0.11-0.49-0.17c-2.39-0.86-4.78-1.72-7.17-2.58c-1.71-0.62-3.42-1.23-5.26-1.4
		c-2.44-0.23-4.88-0.25-7.31,0.09c-2.61,0.36-5.14,1.04-7.62,1.93c-2.69,0.97-5.36,2-8.03,3c-2.55,0.96-5.12,1.86-7.83,2.3
		c-2.57,0.43-5.1,0.27-7.58-0.55c-0.11-0.04-0.21-0.09-0.29-0.13c-0.1-2.94-1.66-4.82-4.24-5.13c-2.28-0.28-4.43,1.19-5.06,3.45
		c-0.3,1.1-0.22,2.19,0.27,3.23c0.68,1.44,1.84,2.29,3.39,2.66c-0.05,0.2-0.09,0.36-0.13,0.52c-2.88,9.8-5.76,19.59-8.64,29.39
		c-3.81,12.94-7.61,25.88-11.42,38.81c-0.69,2.34-1.39,4.68-2.06,7.02C351.52,472.26,351.4,472.41,351.06,472.46z M490.11,399.58
		c0.06,0.01,0.07,0,0.09,0.01c0.01,0.01,0.03,0.02,0.03,0.03c7.35,24.19,14.7,48.37,22.05,72.56c0.02,0.06,0.02,0.13,0.03,0.26
		c-7.38-0.98-14.78-1.42-22.21-1.67C490.11,446.99,490.11,423.29,490.11,399.58z M489.02,399.7c0,23.69,0,47.35,0,71.09
		c-7.13,0.09-14.2,0.35-21.22,1.21c-0.04-0.03-0.05-0.04-0.06-0.05c-0.01-0.01-0.01-0.03-0.01-0.05c0.01-0.08,0.02-0.16,0.05-0.24
		c7.05-23.95,14.09-47.91,21.14-71.86C488.93,399.76,488.97,399.74,489.02,399.7z M375.06,399.72c0.04-0.01,0.07-0.01,0.11-0.02
		c7.38,24.29,14.75,48.59,22.15,72.96c-7.43-0.98-14.81-1.43-22.26-1.67C375.06,447.21,375.06,423.47,375.06,399.72z M373.88,399.97
		c0.05,0,0.06,0,0.07,0.01c0.01,0.01,0.03,0.02,0.03,0.03c0.01,0.1,0.02,0.2,0.02,0.3c-0.02,23.54-0.03,47.08-0.05,70.68
		c-7.11,0.1-14.18,0.35-21.33,1.23C359.73,448.08,366.81,424.03,373.88,399.97z"/>
	<path class="st0" d="M691.09,201.32c1.24,0.11,2.48-0.07,3.7-0.53c1.08-0.42,2.05-1.02,2.89-1.8c2.06-1.91,3.04-4.1,2.95-6.55
		c-0.07-2.1-0.9-4.02-2.5-5.78c-1.6-1.72-3.45-2.68-5.55-2.87c-2.48-0.23-4.7,0.57-6.67,2.4c-1.97,1.83-2.93,3.99-2.88,6.48
		c0.04,2.1,0.87,4.03,2.49,5.76C687.15,200.18,689.01,201.14,691.09,201.32z"/>
	<path class="st0" d="M316.07,106.03c1.93,0.83,4.02,0.88,6.28,0.12s3.89-2.04,4.92-3.87c0.62-1.09,0.97-2.28,1.05-3.59
		c0.07-1.16-0.08-2.28-0.44-3.38c-0.89-2.66-2.47-4.46-4.74-5.4c-1.94-0.81-4.03-0.85-6.29-0.12c-2.23,0.75-3.87,2.03-4.91,3.86
		c-1.24,2.16-1.43,4.52-0.58,7.07C312.21,103.28,313.78,105.04,316.07,106.03z"/>
	<polygon class="st0" points="183.49,184.47 174.4,181.07 177.8,190.19 	"/>
	<path class="st0" d="M806.39,273.84c-20.46-48.38-49.76-91.84-87.08-129.15C682,107.37,638.54,78.08,590.16,57.61
		C540.06,36.42,486.85,25.68,432,25.68S323.94,36.42,273.84,57.61c-48.39,20.46-91.84,49.76-129.15,87.08
		C107.37,182,78.08,225.46,57.61,273.84C36.42,323.94,25.68,377.15,25.68,432s10.74,108.06,31.93,158.16
		c20.46,48.38,49.76,91.84,87.08,129.15c37.31,37.31,80.77,66.61,129.15,87.08c50.1,21.19,103.31,31.93,158.16,31.93
		s108.06-10.74,158.16-31.93c48.38-20.46,91.84-49.76,129.15-87.08c37.31-37.31,66.61-80.77,87.08-129.15
		c21.19-50.1,31.93-103.31,31.93-158.16S827.58,323.94,806.39,273.84z M432,830.87C212.06,830.87,33.13,651.94,33.13,432
		C33.13,212.06,212.06,33.13,432,33.13S830.87,212.06,830.87,432C830.87,651.94,651.94,830.87,432,830.87z"/>
	<path class="st0" d="M692.44,565.86c-2.81,0.89-4.04,0.4-5.46-2.16c-25.15-45.31-50.37-90.58-75.69-135.8
		c-1.44-2.57-1.27-4.25,0.39-6.61c24.51-34.91,48.95-69.88,73.31-104.89c1.85-2.66,3.61-3.91,7.16-3.77
		c12.12,0.49,22.74-8.85,24-20.51c1.28-11.93-6.9-23.69-18.09-26c-12.73-2.62-25,4.35-28.23,16.5c-0.86,3.23-2.23,3.74-5.11,3.53
		c-11.62-0.83-23.25-1.49-34.88-2.2c-17.44-1.05-34.88-2.09-52.32-3.14c-15.45-0.93-30.9-1.97-46.37-2.74
		c-2.83-0.14-4.45-1.07-5.93-3.44c-25.06-40.33-50.21-80.62-75.33-120.91c-0.7-1.13-1.3-2.32-1.92-3.43
		c13.06-11.55,11.35-26.96,2.12-36.29c-8.23-8.31-22.85-8.71-31.88-0.83c-11.22,9.78-10.85,22.21,1.22,37.37
		c-0.65,1.09-1.33,2.26-2.05,3.41c-8.06,12.95-16.12,25.9-24.19,38.84c-16.99,27.25-33.97,54.51-51.05,81.7
		c-0.93,1.47-2.72,3.07-4.32,3.33c-4.13,0.68-8.38,0.66-12.59,0.89c-18.68,1.04-37.36,1.99-56.03,3.12
		c-25.73,1.56-51.45,3.22-77.18,4.92c-2.53,0.17-3.63-0.38-4.22-3.15c-2.25-10.52-12.82-18.65-23.4-18.13
		c-10.62,0.52-17.9,5.98-21.88,15.75c-3.4,8.35-1.02,18.64,6.21,25.19c7.47,6.78,16.21,8.21,25.56,4.27
		c2.36-0.99,3.58-0.85,5.12,1.37c25.5,36.64,51.07,73.23,76.71,109.78c1.45,2.07,1.43,3.56,0.23,5.67
		c-6.55,11.54-12.96,23.16-19.42,34.75c-18.83,33.8-37.7,67.58-56.45,101.43c-1.4,2.53-2.6,3.04-5.46,2.26
		c-3.25-0.88-6.87-1.15-10.21-0.74c-10.67,1.28-19.1,10.12-20.27,20.7c-1.14,10.29,5.27,20.75,15.04,24.55
		c10.01,3.89,21.24,0.78,27.43-8.1c2.41-3.46,3.83-7.61,5.96-11.99c0.9,0,2.49,0,4.08,0c47.12,0.02,94.24,0.15,141.36-0.11
		c5.55-0.03,8.49,1.63,11.32,6.34c22.69,37.86,45.68,75.55,68.56,113.29c0.68,1.12,1.31,2.28,1.97,3.44
		c-1.03,0.94-1.77,1.6-2.49,2.27c-10.23,9.58-10.43,24.38-0.47,34.46c8.48,8.58,24.2,8.63,32.71,0.11
		c9.96-9.97,9.93-25.04-0.31-34.4c-2.29-2.09-2.13-3.43-0.67-5.83c23.61-38.76,47.15-77.55,70.58-116.41
		c1.52-2.53,3.2-3.17,5.95-3.17c48.49,0.06,96.97,0.02,145.46,0.01c1.35,0,2.7,0,4.28,0c0.34,1.39,0.62,2.58,0.92,3.76
		c3.27,12.91,16.51,20.56,29.5,17.04c12.36-3.35,19.96-16.95,16.34-29.25C718.34,569.16,705.05,561.86,692.44,565.86z M431.6,602.43
		c-94.31,0-170.77-76.46-170.77-170.77S337.29,260.9,431.6,260.9c94.31,0,170.77,76.46,170.77,170.77S525.91,602.43,431.6,602.43z"
		/>
	<path class="st0" d="M322.77,758.51c-2.17-0.71-4.2-0.66-6.07,0.15c-2.22,0.96-3.73,2.67-4.54,5.14c-0.81,2.47-0.61,4.75,0.61,6.83
		c1.03,1.77,2.64,3.01,4.83,3.73c2.2,0.72,4.22,0.67,6.09-0.15c1.11-0.49,2.08-1.21,2.9-2.17c0.73-0.86,1.26-1.82,1.61-2.87
		c0.85-2.58,0.66-4.89-0.58-6.93C326.58,760.5,324.96,759.26,322.77,758.51z"/>
	<path class="st0" d="M432,40.7C215.89,40.7,40.7,215.89,40.7,432S215.89,823.3,432,823.3S823.3,648.11,823.3,432
		S648.11,40.7,432,40.7z M679.26,186.15c0.71-1.5,1.68-2.83,2.93-3.98c1.82-1.69,3.91-2.78,6.28-3.25
		c4.53-0.91,8.78,0.71,12.74,4.86c2.93,3.15,4.4,6.44,4.4,9.88c0.02,3.62-1.39,6.75-4.23,9.39c-1.74,1.62-3.8,2.66-6.18,3.13
		c-4.65,0.91-8.91-0.71-12.78-4.88c-2.91-3.12-4.36-6.4-4.36-9.84C678.06,189.62,678.46,187.85,679.26,186.15z M619.28,137.5
		l0.29,0.5c-0.06,0.09-0.1,0.16-0.13,0.2c-0.3,0.45-0.37,1.02-0.19,1.69c0.26,1.02,0.93,2.19,2.01,3.53
		c1.08,1.33,2.23,2.41,3.45,3.22c1.33,0.89,2.62,1.42,3.86,1.6c0.69,0.1,1.33,0.04,1.92-0.17c0.59-0.21,1.03-0.54,1.34-1
		c0.46-0.68,0.42-1.42-0.12-2.2c-0.38-0.54-1.28-1.42-2.72-2.62l-2.15-1.79c-1.45-1.2-2.44-2.08-2.98-2.66
		c-0.55-0.57-1.03-1.24-1.46-1.99c-0.61-1.06-0.87-2.22-0.79-3.48c0.07-1.13,0.47-2.23,1.17-3.29c1.16-1.75,2.72-2.79,4.68-3.14
		c2.57-0.46,5.41,0.35,8.54,2.44c1.31,0.87,2.45,1.82,3.4,2.85c0.95,1.02,2.04,2.46,3.25,4.31c0.43,0.62,0.7,0.97,0.83,1.06
		c0.21,0.14,0.53,0.19,0.97,0.14l0.27,0.51l-5.69,3.23l-0.26-0.52c0.08-0.09,0.14-0.17,0.18-0.23c0.23-0.34,0.18-0.91-0.13-1.69
		c-0.95-2.44-2.63-4.46-5.03-6.07c-1.06-0.71-2.09-1.2-3.07-1.48c-0.73-0.19-1.4-0.21-2.04-0.05c-0.63,0.16-1.11,0.47-1.43,0.95
		c-0.52,0.78-0.4,1.62,0.34,2.52c0.39,0.46,1.32,1.3,2.79,2.52l2.2,1.82c1.3,1.09,2.3,2.05,2.99,2.89c0.69,0.84,1.22,1.72,1.57,2.64
		c0.35,0.95,0.46,1.96,0.32,3.03c-0.14,1.07-0.52,2.06-1.13,2.98c-0.97,1.45-2.29,2.43-3.98,2.94c-1.53,0.47-3.34,0.35-5.44-0.33
		c-1.57-0.51-3.11-1.27-4.63-2.28c-2.72-1.81-4.96-4.25-6.73-7.33c-0.39-0.64-0.63-0.99-0.74-1.06c-0.13-0.09-0.41-0.11-0.84-0.08
		l-0.28-0.52L619.28,137.5z M562.89,117.08c0.45,0.07,0.78,0.05,1.02-0.06c0.23-0.11,0.43-0.33,0.58-0.67l8.66-19.13
		c0.16-0.34,0.2-0.64,0.12-0.88c-0.07-0.25-0.28-0.51-0.63-0.8l0.24-0.53l20.01,9.06c0.33,0.15,0.62,0.18,0.86,0.11
		c0.25-0.08,0.51-0.29,0.8-0.63l0.53,0.24l-2.65,5.85l-0.53-0.24c0.07-0.44,0.05-0.78-0.05-1.02c-0.1-0.24-0.32-0.43-0.65-0.58
		l-14.06-6.36l-2.43,5.37l9.12,4.13c0.33,0.15,0.62,0.19,0.86,0.11c0.24-0.07,0.51-0.29,0.8-0.63l0.53,0.24l-2.59,5.71l-0.53-0.24
		c0.06-0.44,0.05-0.77-0.06-1.01c-0.1-0.24-0.32-0.43-0.65-0.58l-9.12-4.13l-2.8,6.19l14.45,6.54c0.33,0.15,0.62,0.19,0.86,0.11
		c0.25-0.07,0.51-0.29,0.8-0.63l0.53,0.24l-2.65,5.85l-0.53-0.24c0.07-0.45,0.05-0.79-0.05-1.02c-0.11-0.23-0.32-0.43-0.65-0.57
		l-20.41-9.24L562.89,117.08z M507.1,87.29c0.75-2.91,2.25-5.22,4.49-6.94c3.37-2.57,7.63-3.2,12.78-1.88
		c1.89,0.49,3.46,1.1,4.71,1.85c1.25,0.75,2.74,1.97,4.47,3.66c0.83,0.8,1.34,1.23,1.55,1.28c0.21,0.05,0.52-0.03,0.92-0.25
		l0.37,0.43l-4.62,4.16l-0.39-0.44c0.07-0.18,0.12-0.34,0.16-0.46c0.09-0.34,0.02-0.7-0.19-1.07c-0.22-0.37-0.64-0.87-1.28-1.48
		c-1.76-1.7-3.8-2.85-6.11-3.44c-2.73-0.7-5.08-0.58-7.06,0.38c-2.33,1.12-3.82,2.97-4.49,5.56c-0.67,2.59-0.25,4.94,1.25,7.03
		c1.27,1.79,3.27,3.03,6,3.74c2.31,0.59,4.65,0.57,7.01-0.07c0.86-0.23,1.47-0.46,1.84-0.68c0.37-0.22,0.6-0.51,0.68-0.85
		c0.03-0.13,0.06-0.29,0.08-0.47l0.56-0.21l2.04,5.86l-0.54,0.2c-0.25-0.39-0.48-0.61-0.69-0.67c-0.21-0.05-0.87,0.08-1.99,0.39
		c-2.31,0.65-4.2,1-5.67,1.05c-1.48,0.05-3.16-0.16-5.05-0.65c-3.77-0.97-6.63-2.66-8.58-5.08c-1.15-1.41-1.94-3-2.36-4.76
		C506.52,91.5,506.55,89.43,507.1,87.29z M471.18,93.57c0.45-0.07,0.76-0.18,0.96-0.36c0.19-0.17,0.31-0.44,0.36-0.82l2.62-20.85
		c0.05-0.36,0-0.65-0.15-0.86c-0.14-0.21-0.42-0.41-0.84-0.58l0.07-0.58l7.64,0.96l-0.07,0.58c-0.44,0.05-0.76,0.17-0.95,0.35
		s-0.31,0.45-0.36,0.81l-2.62,20.85c-0.05,0.37,0,0.67,0.15,0.89c0.15,0.22,0.43,0.41,0.83,0.57l-0.07,0.58l-7.64-0.96L471.18,93.57
		z M686.1,255.03c-2.52,0.47-4.96,1.19-7.28,2.16c-9.82-13.84-20.8-26.89-32.96-39.05c-27.77-27.77-60.12-49.58-96.13-64.82
		c-26.04-11.01-53.22-18.22-81.15-21.58c0.04-2.46-0.2-4.91-0.69-7.32C558.16,134.85,636.6,184.09,686.1,255.03z M674.02,259.64
		c-5.71,3.51-10.36,8.66-13.18,15.05c-7.88-0.53-15.75-1-23.38-1.46l-6.92-0.42c-8.71-0.53-17.42-1.05-26.14-1.57l-1.61-0.1
		c-8.19-0.49-16.38-0.98-24.57-1.47c-4.31-0.26-8.63-0.53-12.94-0.8c-10.35-0.64-21.03-1.31-31.61-1.85
		c-18.43-29.65-37.19-59.73-55.33-88.84l-16.54-26.53c3.25-4.5,5.37-9.5,6.28-14.71C552.83,147.26,626.68,193.36,674.02,259.64z
		 M424.16,91.28c0.43-0.12,0.74-0.27,0.91-0.46c0.17-0.19,0.26-0.48,0.26-0.85l0.19-21c0-0.38-0.08-0.66-0.25-0.86
		c-0.17-0.2-0.47-0.36-0.9-0.48l0.01-0.58l21.82,0.2c0.36,0,0.64-0.08,0.83-0.24c0.19-0.17,0.35-0.47,0.48-0.91l0.58,0.01
		l-0.06,6.42l-0.58-0.01c-0.12-0.44-0.27-0.75-0.46-0.92c-0.19-0.17-0.47-0.25-0.83-0.26l-15.28-0.14l-0.05,5.93l9.99,0.09
		c0.37,0,0.66-0.08,0.85-0.25c0.19-0.17,0.35-0.47,0.48-0.9l0.58,0.01l-0.06,6.27l-0.58,0c-0.12-0.43-0.27-0.74-0.46-0.91
		c-0.19-0.17-0.47-0.26-0.85-0.27l-9.99-0.09l-0.08,8.94c0,0.38,0.08,0.66,0.25,0.87c0.17,0.2,0.47,0.36,0.89,0.47l-0.01,0.58
		l-7.7-0.07L424.16,91.28z M399.73,136.52c1.03,4.44,3.04,9.28,6.36,14.52c-7.44,11.96-14.89,23.92-22.34,35.87l-6.98,11.2
		c-14.08,22.58-28.63,45.91-43.14,69.01c-1.7,0.16-3.52,0.23-5.43,0.3c-1.18,0.05-2.37,0.09-3.55,0.16
		c-5.91,0.33-11.82,0.65-17.72,0.97l-0.78,0.04c-12.31,0.67-25.05,1.36-37.58,2.12c-26.47,1.6-53.27,3.34-71.72,4.56
		c-2.07-4.8-5.24-9.03-9.13-12.4C235.64,193.86,312.02,146.03,399.73,136.52z M398.94,131.34c-29.17,3.16-57.53,10.5-84.66,21.98
		c-36.02,15.23-68.36,37.04-96.13,64.82c-12.88,12.88-24.46,26.77-34.71,41.53c-2.05-1.3-4.24-2.39-6.51-3.24
		c50.02-72.53,130.18-122.68,222.39-132.35C398.91,126.34,398.75,128.76,398.94,131.34z M387.46,69.76
		c0.36-0.05,0.62-0.18,0.78-0.37c0.16-0.19,0.27-0.52,0.33-0.97l0.57-0.09l0.97,6.34l-0.57,0.09c-0.19-0.42-0.39-0.7-0.6-0.83
		c-0.22-0.14-0.5-0.18-0.86-0.12l-15.11,2.3l0.89,5.86l9.88-1.51c0.37-0.06,0.64-0.18,0.8-0.38c0.17-0.2,0.27-0.52,0.33-0.96
		l0.57-0.09l0.95,6.2l-0.57,0.09c-0.18-0.41-0.39-0.68-0.6-0.82c-0.22-0.14-0.51-0.18-0.88-0.13l-9.88,1.51l1.35,8.84
		c0.06,0.37,0.19,0.64,0.39,0.81c0.2,0.17,0.52,0.28,0.95,0.32l0.09,0.58l-7.61,1.16l-0.09-0.58c0.41-0.18,0.68-0.39,0.82-0.6
		c0.14-0.22,0.18-0.51,0.12-0.88l-3.17-20.76c-0.06-0.37-0.18-0.64-0.38-0.81c-0.2-0.17-0.52-0.28-0.96-0.33l-0.09-0.57
		L387.46,69.76z M305.79,95.39c1.05-4.5,4.28-7.7,9.7-9.59c4.08-1.36,7.69-1.33,10.82,0.09c3.3,1.48,5.57,4.06,6.8,7.73
		c0.75,2.25,0.85,4.56,0.29,6.92c-1.09,4.61-4.33,7.81-9.73,9.61c-4.05,1.35-7.64,1.32-10.77-0.1c-1.68-0.76-3.12-1.85-4.34-3.29
		c-1.07-1.26-1.88-2.7-2.41-4.31C305.36,100.1,305.24,97.75,305.79,95.39z M215.22,137.65l0.33,0.48c-0.53,0.57-0.65,1.07-0.34,1.53
		c0.16,0.23,0.46,0.51,0.91,0.83l11.39,8.16l-3.01-13.9c-0.13-0.6-0.24-0.98-0.35-1.13c-0.31-0.46-0.85-0.53-1.6-0.21l-0.33-0.48
		l7.43-5.01l0.33,0.48c-0.56,0.64-0.68,1.19-0.36,1.67c0.11,0.16,0.4,0.41,0.86,0.73l11.52,8.07l-3.19-13.42
		c-0.15-0.67-0.31-1.14-0.49-1.4c-0.3-0.44-0.85-0.49-1.67-0.15l-0.33-0.48l7.03-4.74l0.33,0.48c-0.4,0.48-0.63,0.89-0.67,1.24
		c-0.04,0.35,0.05,1.03,0.28,2.03l4.38,19.13c0.21,0.91,0.39,1.49,0.56,1.73c0.33,0.49,0.89,0.56,1.68,0.2l0.33,0.48l-6.67,4.5
		l-0.33-0.48c0.62-0.58,0.75-1.15,0.37-1.72c-0.13-0.19-0.59-0.54-1.38-1.04l-12.37-8.6l3.35,15.04c0.14,0.79,0.26,1.26,0.37,1.42
		c0.31,0.46,0.9,0.54,1.77,0.23l0.33,0.48l-6.58,4.44l-0.32-0.48c0.58-0.58,0.69-1.15,0.31-1.7c-0.1-0.15-0.54-0.5-1.32-1.06
		l-16.1-11.22c-0.8-0.56-1.4-0.89-1.82-1c-0.41-0.11-0.88-0.06-1.39,0.16l-0.33-0.48L215.22,137.65z M173.19,173.43l0.41,0.41
		c-0.35,0.65-0.35,1.15,0.01,1.51c0.25,0.25,0.61,0.45,1.09,0.6l20.18,6.83c0.86,0.29,1.5,0.43,1.92,0.43
		c0.42,0,0.85-0.15,1.27-0.44l0.41,0.41l-6.4,6.44l-0.41-0.41c0.47-0.66,0.48-1.21,0.05-1.64c-0.18-0.18-0.53-0.36-1.05-0.54
		l-3.67-1.26l-7.91,7.95l1.3,3.64c0.18,0.5,0.37,0.85,0.57,1.05c0.38,0.38,0.92,0.35,1.64-0.07l0.41,0.41l-5.75,5.78l-0.41-0.41
		c0.27-0.41,0.41-0.79,0.42-1.14c0.01-0.35-0.12-0.89-0.39-1.62l-7.12-19.88c-0.23-0.63-0.47-1.08-0.73-1.33
		c-0.39-0.39-0.92-0.43-1.59-0.1l-0.41-0.41L173.19,173.43z M127.79,227.45l0.48,0.34c-0.16,0.42-0.21,0.75-0.14,1.01
		c0.07,0.25,0.25,0.49,0.56,0.7l15.38,10.84l8.73-12.39c0.22-0.3,0.31-0.59,0.28-0.84c-0.03-0.25-0.19-0.56-0.47-0.91l0.33-0.47
		l5.24,3.7l-0.33,0.47c-0.43-0.15-0.76-0.2-1.01-0.14c-0.25,0.06-0.48,0.24-0.7,0.55l-12.5,17.74l-0.48-0.34
		c0.15-0.42,0.2-0.76,0.13-1.01c-0.06-0.25-0.25-0.48-0.55-0.7l-17.16-12.1c-0.31-0.22-0.59-0.31-0.84-0.29
		c-0.26,0.03-0.56,0.18-0.91,0.47l-0.47-0.34L127.79,227.45z M97.06,461.39l-14.4-9.8l-14.4,9.8l4.24-16.78l-13.14-10.61l16.1-0.11
		l7.2-16.82l7.2,16.82l16.1,0.11l-13.14,10.61L97.06,461.39z M144.34,317.22c2.01,1.49,4.1,2.74,6.26,3.74
		c-13.96,35.32-21.04,72.64-21.04,111.04c0,40.83,8,80.44,23.77,117.73c0.88,2.08,1.8,4.14,2.72,6.19c-2.28,0.83-4.44,1.9-6.47,3.18
		c-17.48-38.78-27.22-81.8-27.22-127.1C122.36,391.45,130.16,352.72,144.34,317.22z M155.56,322.79c5.68,1.6,11.69,1.64,17.77,0.03
		c22.93,32.94,46.98,67.36,71.54,102.37c-4.29,7.6-8.57,15.29-12.71,22.74l-0.04,0.07c-1.63,2.94-3.27,5.88-4.91,8.82l-11.42,20.5
		c-14.03,25.17-28.53,51.18-42.77,76.87c-3.18-0.41-6.43-0.44-9.5-0.07c-0.78,0.09-1.55,0.22-2.31,0.37
		c-16.97-37.37-26.43-78.84-26.43-122.49C134.77,393.46,142.15,356.62,155.56,322.79z M301.61,752.56l-0.51-0.23
		c0.06-0.44,0.04-0.77-0.06-0.99s-0.33-0.41-0.66-0.55l-6.81-2.98l-7.3,16.66c-0.15,0.33-0.18,0.62-0.11,0.86
		c0.08,0.24,0.28,0.5,0.62,0.77l-0.23,0.52l-6.86-3.01l0.23-0.52c0.43,0.06,0.76,0.04,0.99-0.07c0.23-0.11,0.41-0.33,0.56-0.66
		l7.3-16.66l-6.83-2.99c-0.32-0.14-0.6-0.18-0.84-0.1c-0.23,0.07-0.49,0.28-0.77,0.63l-0.52-0.23l2.49-5.68l0.52,0.23
		c-0.05,0.44-0.03,0.77,0.07,1c0.1,0.22,0.31,0.4,0.63,0.54l18.44,8.08c0.33,0.15,0.62,0.18,0.85,0.11
		c0.24-0.07,0.49-0.28,0.77-0.63l0.51,0.23L301.61,752.56z M333.26,770.89c-0.72,2.18-1.98,4.03-3.78,5.53
		c-3.52,2.94-7.91,3.54-13.17,1.82c-3.95-1.29-6.73-3.4-8.35-6.31c-0.87-1.56-1.37-3.24-1.49-5.06c-0.1-1.6,0.1-3.18,0.61-4.74
		c0.75-2.28,2.02-4.18,3.81-5.69c3.43-2.88,7.8-3.49,13.13-1.81c3.98,1.31,6.78,3.42,8.4,6.33
		C334.15,764.02,334.43,767.33,333.26,770.89z M375.98,768.69c-0.44,0.03-0.76,0.12-0.96,0.27c-0.2,0.15-0.33,0.4-0.41,0.74
		l-4.16,19.89c-0.07,0.35-0.05,0.64,0.07,0.86c0.12,0.22,0.38,0.43,0.77,0.63l-0.12,0.55l-7.33-1.53l0.12-0.55
		c0.42-0.02,0.74-0.11,0.94-0.26c0.21-0.16,0.35-0.41,0.42-0.77l3.01-14.42l-12.54,14.31l-5.27-18.04l-3.01,14.42
		c-0.07,0.36-0.05,0.64,0.07,0.86c0.12,0.22,0.38,0.43,0.77,0.63l-0.12,0.55l-6.9-1.44l0.12-0.55c0.44-0.03,0.75-0.12,0.95-0.27
		c0.2-0.15,0.34-0.4,0.41-0.76l4.16-19.89c0.07-0.34,0.05-0.62-0.08-0.84c-0.12-0.22-0.38-0.43-0.77-0.63l0.12-0.55l9.05,1.89
		l-0.12,0.55c-0.57,0.02-0.9,0.29-1.01,0.78c-0.05,0.23-0.02,0.51,0.08,0.84l3.87,13.48l8.99-10.58c0.4-0.47,0.62-0.82,0.67-1.06
		c0.1-0.47-0.13-0.79-0.7-0.97l0.12-0.55l8.88,1.86L375.98,768.69z M185.08,618.85c2.08-1.17,4.04-2.57,5.85-4.18
		c8.31,10.94,17.38,21.35,27.22,31.19c27.78,27.78,60.12,49.58,96.13,64.82c27.1,11.46,55.43,18.8,84.56,21.97
		c-0.02,2.47,0.23,4.92,0.73,7.31C312.11,730.85,235.47,685.34,185.08,618.85z M194.68,610.75c0.53-0.65,1.04-1.31,1.52-2.01
		c1.67-2.4,2.91-4.84,3.99-7.2c9.88,0,19.75,0.01,29.63,0.02l0.88,0c35.33,0.03,71.86,0.06,107.81-0.13c0.28,0,0.79-0.01,1.1,0.01
		c0.17,0.25,0.43,0.67,0.57,0.9c17.17,28.65,34.79,57.67,51.84,85.73c4.77,7.85,9.54,15.71,14.3,23.56
		c-3.72,4.71-6.1,10.08-7.04,15.8C315.89,718.26,242.78,674.45,194.68,610.75z M426.21,773.1c-0.53,0.04-0.99,0.21-1.39,0.51
		c-0.4,0.3-0.96,0.9-1.67,1.8l-8.34,10.47l-0.45,8.19c-0.02,0.36,0.05,0.64,0.21,0.84c0.16,0.2,0.44,0.37,0.85,0.5l-0.03,0.56
		l-7.51-0.41l0.03-0.56c0.43-0.09,0.73-0.23,0.92-0.41s0.29-0.45,0.31-0.81l0.45-8.19l-7.14-11.32c-0.62-0.97-1.11-1.63-1.47-1.97
		c-0.36-0.34-0.81-0.56-1.33-0.66l0.03-0.56l9.46,0.52l-0.03,0.56c-0.79,0.09-1.2,0.43-1.24,1.02c-0.01,0.21,0.2,0.69,0.64,1.42
		l3.97,6.65l4.79-6.17c0.52-0.66,0.78-1.12,0.8-1.36c0.02-0.27-0.08-0.51-0.28-0.71c-0.2-0.2-0.48-0.35-0.84-0.42l0.03-0.56
		l9.27,0.51L426.21,773.1z M460.12,786.7c0.12,2.54-0.27,4.46-1.14,5.77c-1.58,2.35-5.01,3.64-10.29,3.88
		c-3.82,0.17-6.77-0.31-8.85-1.44c-1.21-0.66-2.08-1.59-2.59-2.8c-0.5-1.2-0.79-2.64-0.87-4.33l-0.61-13.43
		c-0.02-0.36-0.11-0.63-0.28-0.81c-0.17-0.18-0.47-0.32-0.9-0.42l-0.03-0.56l7.48-0.34l0.03,0.56c-0.41,0.12-0.7,0.29-0.85,0.49
		c-0.16,0.2-0.23,0.48-0.21,0.85l0.55,11.96c0.06,1.38,0.19,2.4,0.37,3.05c0.18,0.65,0.49,1.19,0.94,1.62
		c1.18,1.14,3.13,1.65,5.84,1.53c2.73-0.13,4.63-0.81,5.7-2.06c0.39-0.46,0.64-1.03,0.77-1.7c0.12-0.67,0.15-1.69,0.09-3.07
		l-0.55-11.96c-0.02-0.36-0.11-0.63-0.28-0.81c-0.17-0.18-0.47-0.32-0.9-0.42l-0.03-0.56l7.06-0.32l0.03,0.56
		c-0.42,0.14-0.7,0.3-0.86,0.5c-0.16,0.2-0.22,0.47-0.21,0.84L460.12,786.7z M475.54,799.28l-0.97-1.02
		c0.88-0.74,1.49-1.44,1.84-2.08c0.35-0.64,0.55-1.45,0.61-2.41c-0.54,0.2-0.94,0.31-1.2,0.34c-0.77,0.09-1.42-0.1-1.95-0.58
		s-0.85-1.15-0.95-2.01c-0.11-0.86,0.05-1.58,0.46-2.15c0.41-0.57,1-0.9,1.78-0.99c1.05-0.13,1.9,0.21,2.56,1
		c0.58,0.72,0.94,1.62,1.07,2.7C479.11,794.65,478.02,797.05,475.54,799.28z M510.69,787.86l-0.11-0.55
		c0.73-0.28,1.04-0.71,0.93-1.3c-0.05-0.24-0.23-0.57-0.56-1l-2.28-2.98l-10.69,2.15l-0.92,3.63c-0.12,0.5-0.16,0.89-0.11,1.15
		c0.1,0.51,0.56,0.78,1.36,0.82l0.11,0.55l-7.78,1.56l-0.11-0.55c0.44-0.18,0.76-0.42,0.96-0.69s0.38-0.78,0.56-1.51l5.02-19.82
		c0.16-0.63,0.21-1.12,0.13-1.46c-0.11-0.53-0.51-0.84-1.23-0.94l-0.11-0.55l8.34-1.68l0.11,0.55c-0.64,0.33-0.91,0.74-0.81,1.22
		c0.07,0.33,0.25,0.69,0.56,1.07l12.61,16.33c0.53,0.69,0.97,1.15,1.32,1.38s0.77,0.33,1.27,0.33l0.11,0.55L510.69,787.86z
		 M548.33,764.45c-0.41,1.22-1.14,2.22-2.2,3c-1.05,0.78-2.64,1.5-4.76,2.15l-8.24,2.52l2.31,7.56c0.1,0.34,0.26,0.57,0.48,0.71
		c0.22,0.13,0.54,0.19,0.96,0.17l0.17,0.54l-7.16,2.19l-0.17-0.54c0.37-0.24,0.6-0.47,0.71-0.69c0.1-0.23,0.1-0.51,0-0.85
		l-5.95-19.43c-0.11-0.35-0.27-0.59-0.48-0.72c-0.21-0.13-0.54-0.19-0.97-0.18l-0.16-0.54l14.32-4.38c1.67-0.51,3.03-0.8,4.08-0.88
		c1.05-0.08,2.03,0.04,2.95,0.36c0.95,0.34,1.78,0.9,2.5,1.7c0.73,0.83,1.26,1.78,1.59,2.86
		C548.8,761.55,548.8,763.03,548.33,764.45z M587.22,759.37c-0.42-0.15-0.73-0.19-0.92-0.11c-0.19,0.08-0.63,0.57-1.31,1.47
		c-1.41,1.85-2.67,3.23-3.78,4.14s-2.54,1.73-4.29,2.46c-3.49,1.46-6.7,1.84-9.63,1.12c-1.72-0.41-3.26-1.17-4.61-2.28
		c-1.56-1.26-2.75-2.88-3.58-4.85c-1.12-2.68-1.32-5.34-0.58-7.97c1.11-3.96,4.05-6.94,8.81-8.94c1.75-0.74,3.33-1.18,4.74-1.34
		s3.28-0.09,5.61,0.2c1.11,0.13,1.76,0.16,1.96,0.07c0.19-0.08,0.38-0.33,0.57-0.73l0.54,0.12l-1.14,5.91l-0.56-0.11
		c-0.05-0.18-0.1-0.33-0.15-0.45c-0.13-0.31-0.39-0.55-0.77-0.71s-1-0.29-1.86-0.39c-2.36-0.27-4.62,0.04-6.76,0.93
		c-2.53,1.06-4.28,2.54-5.25,4.43c-1.15,2.22-1.23,4.53-0.23,6.91c1,2.38,2.7,3.95,5.09,4.68c2.03,0.63,4.31,0.42,6.84-0.64
		c2.14-0.9,3.94-2.29,5.4-4.17c0.53-0.68,0.87-1.21,1.03-1.6c0.15-0.39,0.17-0.74,0.03-1.05c-0.05-0.12-0.12-0.26-0.21-0.41
		l0.31-0.49l5.01,3.32L587.22,759.37z M467.97,739.56c0.47-2.39,0.7-4.84,0.65-7.31c27.91-3.36,55.07-10.57,81.1-21.57
		c36.01-15.23,68.36-37.04,96.13-64.82c10.38-10.38,19.91-21.42,28.59-33.04c1.69,1.7,3.56,3.23,5.58,4.56
		C630.32,683.77,554.6,729.54,467.97,739.56z M461.12,711.62c24.15-39.67,46.01-75.71,66.75-110.09
		c38.35,0.05,77.3,0.03,114.98,0.01l24.11-0.01c1.03,2.53,2.36,4.91,3.94,7.1c-47.42,63.97-119.89,108.31-202.78,118.4
		C467.15,721.42,464.78,716.19,461.12,711.62z M725.11,602.82c-3.89,6.95-10.37,12.08-17.79,14.09c-7.88,2.14-16.07,1.06-23.07-3.03
		c-6.19-3.62-10.69-9.08-13.02-15.81l-0.61-1.75l-27.77,0.01c-38.16,0.01-77.63,0.03-116.44-0.02l-1.47,0l-0.76,1.26
		c-21.24,35.22-43.64,72.16-68.47,112.94l-1.01,1.65l1.29,1.44c4.71,5.26,7.28,11.7,7.44,18.62c0.19,8.18-3.06,16.04-9.15,22.15
		c-5.14,5.15-12.61,8.1-20.49,8.1h-0.07c-7.93-0.02-15.43-3.02-20.59-8.23c-6-6.06-9.21-13.82-9.06-21.85
		c0.13-6.91,2.7-13.41,7.43-18.8l1.26-1.44l-0.99-1.63c-5.09-8.39-10.18-16.77-15.27-25.15c-17.04-28.06-34.66-57.07-51.82-85.7
		c-1.7-2.83-2.73-3.45-5.96-3.45c-0.07,0-0.14,0-0.21,0c-35.93,0.19-72.45,0.16-107.77,0.13l-0.88,0
		c-10.44-0.01-20.88-0.02-31.31-0.02l-1.69,0l-0.69,1.55c-1.15,2.6-2.43,5.34-4.2,7.89c-7.63,10.95-21.81,15.17-34.47,10.25
		c-12.34-4.79-20.25-17.73-18.8-30.76c1.49-13.45,12.21-24.37,25.49-25.96c3.16-0.38,6.56-0.27,9.82,0.31l1.84,0.33l0.9-1.63
		c14.52-26.2,29.33-52.76,43.65-78.45l11.42-20.5c1.64-2.94,3.27-5.88,4.91-8.83l0.04-0.07c4.4-7.91,8.95-16.09,13.5-24.14
		l0.81-1.43l-0.95-1.35c-25.26-36.01-50.01-71.42-73.54-105.24l-1.1-1.58l-1.83,0.59c-10.49,3.36-20.47,1.12-28.84-6.47
		c-9.04-8.2-12.14-21-7.72-31.85c4.86-11.92,14.48-18.83,27.1-19.45c12.28-0.59,24.28,7.54,28.52,19.33l0.66,1.85l1.96-0.13
		c18.48-1.22,46.21-3.02,73.59-4.68c12.52-0.76,25.24-1.45,37.55-2.11l0.78-0.04c5.91-0.32,11.82-0.64,17.73-0.97
		c1.15-0.06,2.31-0.11,3.47-0.16c2.48-0.1,4.82-0.19,7.07-0.47l1.23-0.15l0.66-1.05c14.74-23.46,29.53-47.17,43.82-70.1l6.98-11.2
		c7.75-12.42,15.48-24.85,23.22-37.28l0.89-1.43l-0.94-1.4c-13.36-19.96-5.75-33.23,2.98-40.85c11.52-10.05,29.48-9.54,40.03,1.12
		c5.99,6.05,9.27,14.17,9,22.27c-0.21,6.45-2.49,12.44-6.76,17.81l-1.15,1.44l18.46,29.61c18.38,29.48,37.39,59.97,56.05,89.99
		l0.72,1.16l1.36,0.07c10.99,0.55,22.13,1.24,32.91,1.91c4.32,0.27,8.63,0.54,12.95,0.8c8.19,0.49,16.38,0.98,24.57,1.47l1.62,0.1
		c8.71,0.52,17.42,1.04,26.13,1.57l6.92,0.42c8.22,0.49,16.72,1,25.21,1.59l1.94,0.13l0.68-1.82c5.05-13.5,19.48-21.09,34.31-18.04
		c14.19,2.92,24.42,17.49,22.81,32.47c-1.56,14.49-14.31,25.85-29.04,25.85c-0.29,0-0.58,0-0.87-0.01l-1.39-0.04l-0.9,1.26
		c-25.45,36.57-49.17,70.5-72.51,103.75l-0.94,1.34l0.8,1.43c24.35,43.5,49.07,87.85,73.47,131.82l0.93,1.68l1.88-0.4
		c6.74-1.42,13.54-0.44,19.67,2.82c7.12,3.79,12.31,10.17,14.6,17.97v0C729.99,587.64,729,595.87,725.11,602.82z M707.55,320.56
		C721.52,355,729.23,392.61,729.23,432c0,43.38-9.35,84.6-26.12,121.79c-2.88-0.3-5.81-0.24-8.73,0.21
		c-23.85-42.97-47.99-86.27-71.78-128.78c22.83-32.51,46.02-65.7,70.86-101.39C698.44,323.77,703.22,322.6,707.55,320.56z
		 M715.18,557.42c-2.18-1.12-4.42-2-6.72-2.62c0.75-1.68,1.5-3.37,2.22-5.08c15.77-37.29,23.77-76.9,23.77-117.73
		c0-39.5-7.49-77.85-22.26-114.07c2.1-1.41,4.04-3.05,5.78-4.87c15.25,36.62,23.68,76.79,23.68,118.93
		C741.64,476.65,732.18,519.08,715.18,557.42z M742.24,247.25l-0.32-0.48c0.3-0.34,0.47-0.64,0.51-0.89
		c0.03-0.25-0.05-0.53-0.24-0.83l-8.35-12.8l-4.97,3.24l5.45,8.37c0.2,0.31,0.43,0.5,0.68,0.57c0.25,0.07,0.59,0.03,1.01-0.1
		l0.32,0.48l-5.26,3.42l-0.31-0.48c0.29-0.34,0.46-0.63,0.5-0.89c0.04-0.26-0.04-0.54-0.25-0.85l-5.46-8.37l-7.49,4.88
		c-0.31,0.21-0.51,0.44-0.58,0.69c-0.07,0.26-0.04,0.59,0.1,1l-0.49,0.32l-4.2-6.45l0.49-0.32c0.34,0.3,0.63,0.46,0.89,0.5
		c0.25,0.04,0.54-0.05,0.85-0.25l17.59-11.46c0.31-0.21,0.51-0.43,0.58-0.68c0.07-0.25,0.04-0.59-0.1-1.02l0.49-0.32l11.92,18.28
		c0.2,0.3,0.42,0.49,0.66,0.56c0.25,0.07,0.58,0.03,1.02-0.11l0.32,0.48L742.24,247.25z M784.85,451.58l-14.4,9.8l4.24-16.78
		l-13.14-10.61l16.1-0.11l7.2-16.82l7.2,16.82l16.1,0.11l-13.14,10.61l4.24,16.78L784.85,451.58z"/>
	<polygon class="st0" points="498.85,780.65 506.54,779.1 501.04,771.49 	"/>
	<path class="st0" d="M542.39,760.16c-0.38-0.39-0.8-0.63-1.26-0.73c-0.71-0.14-1.82,0.03-3.36,0.5l-7.65,2.34l1.86,6.07l7.65-2.34
		c1.53-0.47,2.54-0.96,3.06-1.47c0.33-0.33,0.54-0.77,0.64-1.31c0.1-0.54,0.06-1.09-0.11-1.65
		C543.05,761.02,542.77,760.55,542.39,760.16z"/>
	<path class="st0" d="M320.86,512.91c0.7,0.35,1.41,0.25,2.14-0.3c0.73-0.55,1.01-1.21,0.86-1.98c-0.1-0.52-0.52-1.27-1.27-2.26
		l-4.07-5.34l-3.55,2.7l4.07,5.34C319.77,512.06,320.38,512.67,320.86,512.91z"/>
	<path class="st0" d="M429.35,568.86l-7.33-0.27l-0.19,5.16l7.32,0.27c2.37,0.08,3.58-0.73,3.64-2.46
		C432.87,569.86,431.72,568.95,429.35,568.86z"/>
	<path class="st0" d="M431.71,564.95c0.48-0.27,0.73-0.75,0.75-1.46c0.03-0.69-0.19-1.19-0.64-1.49c-0.45-0.3-1.25-0.48-2.38-0.52
		l-7.15-0.26l-0.14,3.81l7.15,0.26C430.43,565.33,431.23,565.22,431.71,564.95z"/>
	<polygon class="st0" points="381,560.88 386.96,562.91 385.95,555.88 	"/>
	<polygon class="st0" points="334.32,532.99 336.22,526.14 329.68,528.74 	"/>
	<polygon class="st0" points="481.29,300.54 476.26,305.46 482.19,307.59 	"/>
	<path class="st0" d="M362.82,543.07l-6.1-3.64l-2.29,3.83l6.1,3.64c0.93,0.55,1.67,0.86,2.23,0.92c0.79,0.1,1.42-0.25,1.9-1.06
		c0.43-0.72,0.5-1.34,0.23-1.89C364.63,544.34,363.94,543.74,362.82,543.07z"/>
	<path class="st0" d="M460.58,296.82c0.75-0.22,1.2-0.79,1.34-1.69s-0.1-1.58-0.74-2.03c-0.42-0.31-1.25-0.56-2.48-0.76l-6.63-1.08
		l-0.72,4.41l6.63,1.08C459.2,296.95,460.07,296.97,460.58,296.82z"/>
	<path class="st0" d="M432,266.69c-91.3,0-165.31,74.01-165.31,165.31S340.7,597.31,432,597.31S597.31,523.3,597.31,432
		S523.3,266.69,432,266.69z M526.55,319.38l0.33-0.37l13.22,11.91c0.28,0.25,0.54,0.38,0.8,0.39c0.25,0.01,0.57-0.11,0.93-0.34
		l0.35,0.32l-3.89,4.32l-0.35-0.32c0.2-0.4,0.28-0.72,0.24-0.97c-0.04-0.25-0.19-0.5-0.47-0.75l-8.88-8l-2.89,3.21l5.51,4.96
		c0.27,0.24,0.53,0.37,0.79,0.38c0.25,0.01,0.57-0.1,0.95-0.33l0.35,0.32l-3.8,4.22l-0.35-0.32c0.19-0.39,0.27-0.71,0.24-0.96
		c-0.03-0.25-0.19-0.51-0.47-0.76l-5.51-4.96l-3.21,3.57l9.29,8.36c0.27,0.24,0.53,0.37,0.78,0.38s0.56-0.11,0.94-0.34l0.37,0.33
		l-3.89,4.32l-0.37-0.33c0.2-0.38,0.28-0.69,0.24-0.95c-0.03-0.26-0.19-0.51-0.46-0.75l-13.62-12.27l0.33-0.37
		c0.38,0.2,0.69,0.28,0.95,0.24c0.26-0.03,0.51-0.19,0.75-0.46l10.78-11.96c0.24-0.27,0.37-0.53,0.37-0.78
		C526.89,320.07,526.78,319.76,526.55,319.38z M494.22,315.23c0.11-1.6,0.6-3.12,1.46-4.56c1.19-1.98,2.81-3.39,4.86-4.22
		c3.22-1.3,6.69-0.83,10.41,1.4c1.38,0.82,2.51,1.71,3.39,2.67c0.88,0.95,1.77,2.24,2.66,3.86c0.4,0.75,0.69,1.17,0.86,1.27
		c0.14,0.08,0.38,0.11,0.73,0.09l0.18,0.48l-4.76,2.17l-0.19-0.44c0.08-0.11,0.14-0.18,0.17-0.21c0.06-0.08,0.11-0.15,0.13-0.19
		c0.29-0.49-0.05-1.45-1.04-2.89c-0.93-1.36-2.05-2.43-3.36-3.21c-1.83-1.1-3.63-1.52-5.39-1.26c-2.01,0.27-3.52,1.25-4.53,2.95
		c-1.02,1.7-1.18,3.5-0.47,5.4c0.63,1.67,1.85,3.05,3.67,4.14c1.43,0.85,3.06,1.35,4.91,1.48c1.44,0.1,2.29-0.06,2.54-0.49
		c0.01-0.02,0.08-0.17,0.21-0.45l0.49-0.06l0.32,5.25l-0.5,0.05c-0.14-0.32-0.28-0.52-0.42-0.6c-0.17-0.1-0.68-0.15-1.53-0.16
		c-1.86-0.02-3.41-0.19-4.65-0.51c-1.24-0.32-2.55-0.89-3.93-1.72c-2.75-1.65-4.61-3.65-5.56-6.01
		C494.34,318.13,494.12,316.71,494.22,315.23z M479.39,297.07c0.44-0.43,0.73-0.83,0.87-1.22c0.16-0.45-0.02-0.92-0.55-1.39
		l0.17-0.46l7.2,2.58l-0.17,0.46c-0.69,0.02-1.13,0.29-1.31,0.8c-0.13,0.36-0.15,0.86-0.07,1.49l2.25,15.8
		c0.13,0.86,0.26,1.44,0.41,1.73c0.14,0.29,0.43,0.56,0.85,0.81l-0.17,0.46l-7.57-2.72l0.17-0.46c0.76,0.14,1.24-0.07,1.44-0.62
		c0.12-0.34,0.14-0.81,0.04-1.42l-0.34-2.26l-8.52-3.06l-1.68,1.67c-0.41,0.4-0.66,0.74-0.76,1.02c-0.19,0.53,0.04,0.99,0.7,1.39
		l-0.17,0.46l-6.81-2.44l0.17-0.46c0.44,0.08,0.8,0.07,1.07-0.05c0.27-0.11,0.64-0.4,1.12-0.85L479.39,297.07z M443.81,305.76
		c0.42-0.04,0.73-0.14,0.93-0.31c0.2-0.17,0.33-0.43,0.39-0.79l2.58-15.89c0.06-0.36,0.02-0.64-0.11-0.85
		c-0.13-0.21-0.4-0.41-0.79-0.61l0.08-0.49l12.67,2.06c2.51,0.41,4.34,1.09,5.49,2.05c0.67,0.56,1.15,1.28,1.43,2.16
		c0.28,0.88,0.35,1.82,0.18,2.83c-0.31,1.93-1.21,3.26-2.68,3.99c-1.47,0.73-3.57,0.87-6.29,0.43l-6.91-1.12l-1,6.2
		c-0.06,0.36-0.02,0.65,0.11,0.86c0.13,0.22,0.39,0.42,0.79,0.62l-0.08,0.49l-6.87-1.11L443.81,305.76z M544.41,432
		c0,62.08-50.33,112.41-112.41,112.41S319.59,494.08,319.59,432S369.92,319.59,432,319.59S544.41,369.92,544.41,432z M407.48,289.42
		c1.55-1.22,3.57-1.98,6.03-2.27c1.34-0.16,2.6-0.16,3.8,0c1.19,0.16,2.64,0.52,4.33,1.07c0.5,0.16,0.85,0.24,1.03,0.21
		c0.19-0.02,0.41-0.18,0.67-0.47l0.45,0.18l-1.82,4.84l-0.45-0.18c-0.05-0.38-0.2-0.67-0.47-0.86c-0.73-0.51-1.77-0.89-3.11-1.12
		c-1.34-0.23-2.67-0.27-4-0.11c-1.13,0.13-2.11,0.41-2.95,0.83c-1.2,0.6-1.75,1.33-1.65,2.2c0.07,0.57,0.42,0.94,1.05,1.11
		c0.63,0.17,1.83,0.22,3.58,0.15l2.78-0.12c2.43-0.1,4.32,0.15,5.66,0.74c0.75,0.34,1.39,0.83,1.93,1.47
		c0.67,0.81,1.08,1.75,1.21,2.85c0.24,1.99-0.47,3.67-2.13,5.03c-1.58,1.31-3.83,2.14-6.75,2.48c-2.94,0.35-5.86,0.06-8.76-0.86
		c-0.2-0.06-0.36-0.08-0.49-0.07c-0.23,0.03-0.43,0.19-0.6,0.5l-0.46-0.12l1.44-5.02l0.46,0.12c0.01,0.07,0.01,0.12,0.02,0.14
		c0.04,0.3,0.18,0.54,0.44,0.73c0.64,0.44,1.7,0.77,3.18,0.98c1.48,0.21,2.91,0.23,4.31,0.06c1.23-0.15,2.32-0.44,3.26-0.88
		c1.16-0.54,1.69-1.25,1.59-2.14c-0.08-0.71-0.56-1.15-1.43-1.33c-0.58-0.12-1.61-0.16-3.08-0.11l-2.77,0.1
		c-1.49,0.06-2.64,0.04-3.44-0.05s-1.51-0.29-2.14-0.58c-0.8-0.38-1.46-0.94-1.97-1.7c-0.51-0.75-0.83-1.61-0.94-2.56
		C405.05,292.52,405.78,290.77,407.48,289.42z M396.35,290.65l0.13,0.48c-0.38,0.22-0.62,0.45-0.73,0.68
		c-0.11,0.23-0.12,0.52-0.02,0.87l4.13,15.55c0.09,0.35,0.24,0.6,0.45,0.74c0.21,0.14,0.53,0.23,0.97,0.24l0.13,0.48l-6.73,1.79
		l-0.13-0.48c0.37-0.21,0.61-0.43,0.72-0.67c0.11-0.24,0.12-0.53,0.03-0.88l-4.13-15.56c-0.09-0.35-0.24-0.6-0.45-0.74
		c-0.21-0.14-0.53-0.22-0.97-0.23l-0.13-0.48L396.35,290.65z M367.86,300.59l0.2,0.45c-0.59,0.51-0.78,1.03-0.55,1.56
		c0.1,0.24,0.42,0.59,0.94,1.05l8.5,7.66l0.23-11.45c0.02-0.66-0.03-1.12-0.15-1.39c-0.23-0.54-0.75-0.76-1.53-0.66l-0.2-0.45
		l6.98-3.04l0.2,0.45c-0.37,0.33-0.61,0.63-0.71,0.92s-0.17,0.81-0.19,1.58l-0.54,16.05c-0.02,0.57,0.02,0.98,0.13,1.23
		c0.23,0.54,0.74,0.72,1.51,0.55l0.19,0.44l-7.08,3.08l-0.19-0.44c0.64-0.44,0.84-0.93,0.61-1.47c-0.11-0.25-0.38-0.56-0.81-0.93
		l-12.11-10.55c-0.58-0.51-1.01-0.83-1.28-0.95c-0.28-0.12-0.66-0.15-1.17-0.1l-0.2-0.45L367.86,300.59z M342.89,315.28l0.3,0.39
		c-0.27,0.35-0.41,0.65-0.42,0.9c-0.01,0.25,0.09,0.52,0.31,0.81l9.72,12.82c0.22,0.29,0.45,0.46,0.7,0.52
		c0.25,0.06,0.58,0.01,0.99-0.15l0.3,0.39l-5.54,4.21l-0.3-0.39c0.26-0.33,0.4-0.63,0.42-0.89c0.01-0.26-0.09-0.54-0.31-0.83
		l-9.73-12.83c-0.22-0.29-0.45-0.46-0.7-0.51s-0.57,0-0.99,0.15l-0.3-0.39L342.89,315.28z M318.86,329.98
		c1.07-1.1,2.17-2.02,3.32-2.76s2.7-1.53,4.68-2.37c0.67-0.3,1.05-0.51,1.16-0.62c0.17-0.18,0.27-0.48,0.31-0.9l0.53-0.17l2.08,5.98
		l-0.54,0.16c-0.08-0.09-0.14-0.16-0.19-0.21c-0.29-0.28-0.83-0.33-1.63-0.16c-2.49,0.49-4.72,1.75-6.67,3.77
		c-0.86,0.89-1.51,1.79-1.95,2.68c-0.31,0.66-0.45,1.31-0.41,1.94s0.26,1.14,0.65,1.52c0.65,0.63,1.47,0.66,2.46,0.1
		c0.51-0.29,1.47-1.04,2.89-2.24l2.12-1.79c1.27-1.06,2.36-1.85,3.28-2.36c0.92-0.52,1.86-0.87,2.8-1.05
		c0.97-0.17,1.95-0.1,2.94,0.21c1,0.32,1.88,0.85,2.64,1.59c1.21,1.17,1.91,2.6,2.1,4.3c0.18,1.54-0.25,3.25-1.28,5.14
		c-0.76,1.41-1.76,2.76-2.99,4.03c-2.21,2.29-4.93,4.01-8.18,5.18c-0.67,0.26-1.06,0.44-1.15,0.53c-0.11,0.11-0.18,0.37-0.22,0.79
		l-0.54,0.18l-2.43-5.96l0.53-0.2c0.08,0.07,0.13,0.13,0.16,0.16c0.38,0.37,0.9,0.52,1.58,0.47c1.02-0.08,2.26-0.52,3.72-1.32
		s2.69-1.72,3.68-2.75c1.08-1.12,1.82-2.26,2.2-3.42c0.21-0.64,0.27-1.26,0.17-1.86c-0.1-0.6-0.33-1.08-0.71-1.45
		c-0.57-0.55-1.28-0.64-2.12-0.26c-0.58,0.27-1.58,0.99-2.98,2.15l-2.08,1.75c-1.4,1.18-2.42,1.98-3.06,2.4
		c-0.64,0.42-1.36,0.77-2.15,1.05c-1.12,0.4-2.27,0.45-3.45,0.16c-1.07-0.26-2.04-0.82-2.93-1.68c-1.46-1.41-2.18-3.08-2.17-5
		C315.05,335.19,316.32,332.61,318.86,329.98z M312.11,507.9l-4.99,3.8c-0.29,0.22-0.46,0.45-0.51,0.7c-0.05,0.25,0,0.58,0.15,0.99
		l-0.39,0.3l-4.22-5.54l0.39-0.3c0.33,0.26,0.63,0.4,0.89,0.41c0.26,0.02,0.54-0.09,0.83-0.31l12.81-9.75
		c0.29-0.22,0.46-0.45,0.51-0.7s0-0.57-0.16-0.99l0.39-0.3l7.77,10.21c1.54,2.02,2.4,3.78,2.57,5.27c0.1,0.87-0.05,1.72-0.45,2.55
		c-0.4,0.83-1,1.56-1.81,2.17c-1.56,1.18-3.12,1.54-4.69,1.05c-1.57-0.49-3.19-1.82-4.86-4.01L312.11,507.9z M342.74,525.08
		c-0.65-0.25-1.16-0.17-1.52,0.23c-0.26,0.28-0.47,0.73-0.64,1.35l-4.02,15.45c-0.21,0.84-0.31,1.43-0.29,1.75
		c0.02,0.32,0.18,0.68,0.47,1.08l-0.33,0.36l-5.93-5.43l0.33-0.36c0.65,0.42,1.17,0.41,1.56-0.02c0.24-0.27,0.44-0.7,0.58-1.29
		l0.56-2.22l-6.68-6.11l-2.2,0.89c-0.53,0.21-0.89,0.43-1.09,0.65c-0.38,0.42-0.35,0.93,0.11,1.55l-0.33,0.36l-5.34-4.88l0.33-0.36
		c0.38,0.25,0.71,0.37,1.01,0.37c0.29,0,0.75-0.12,1.36-0.35l15.13-5.89c0.57-0.22,1-0.49,1.27-0.79c0.32-0.35,0.33-0.85,0.03-1.49
		l0.33-0.36l5.64,5.16L342.74,525.08z M368.83,549.16c-0.82,1.37-1.83,2.21-3.04,2.54c-1.21,0.32-2.75,0.16-4.62-0.5l0.54,6.37
		c0.09,1.17,0.23,2.01,0.4,2.51c0.17,0.5,0.45,0.93,0.85,1.27l-0.25,0.42l-7.11-4.24l0.25-0.42c0.61,0.17,1,0.1,1.19-0.21
		c0.13-0.22,0.17-0.65,0.12-1.3l-0.49-6.85l-4.05-2.42l-3.21,5.39c-0.19,0.31-0.26,0.59-0.21,0.84c0.04,0.25,0.21,0.54,0.51,0.87
		l-0.25,0.42l-5.98-3.56l0.25-0.42c0.41,0.12,0.73,0.14,0.98,0.05c0.25-0.08,0.46-0.28,0.65-0.59l8.24-13.83
		c0.19-0.31,0.26-0.59,0.21-0.84s-0.22-0.53-0.51-0.86l0.25-0.42l11.08,6.6c1.44,0.86,2.49,1.59,3.16,2.18
		c0.67,0.6,1.19,1.26,1.55,2C370.07,545.69,369.91,547.35,368.83,549.16z M393.79,573.36l-7.61-2.6l0.16-0.47
		c0.76,0.12,1.24-0.09,1.42-0.64c0.12-0.34,0.12-0.82,0.02-1.42l-0.38-2.26l-8.57-2.93l-1.66,1.7c-0.4,0.41-0.65,0.75-0.74,1.03
		c-0.18,0.53,0.06,0.99,0.72,1.38l-0.16,0.47l-6.85-2.34l0.16-0.47c0.44,0.08,0.8,0.06,1.07-0.06c0.27-0.12,0.64-0.41,1.1-0.87
		L384,552.45c0.43-0.43,0.72-0.84,0.85-1.23c0.16-0.45-0.03-0.92-0.57-1.38l0.16-0.47l7.24,2.47l-0.16,0.47
		c-0.69,0.04-1.13,0.31-1.3,0.82c-0.12,0.37-0.14,0.86-0.04,1.49l2.49,15.77c0.14,0.86,0.28,1.43,0.43,1.72
		c0.15,0.29,0.43,0.56,0.86,0.8L393.79,573.36z M435.25,576.43c-1.32,0.88-3.11,1.28-5.37,1.19l-14-0.51l0.02-0.49
		c0.41-0.09,0.71-0.23,0.89-0.42c0.18-0.19,0.27-0.47,0.29-0.83l0.58-16.09c0.01-0.36-0.06-0.64-0.22-0.84
		c-0.16-0.19-0.44-0.36-0.86-0.5l0.02-0.49l13.77,0.5c2.41,0.09,4.17,0.59,5.26,1.49c1.16,0.96,1.71,2.23,1.65,3.83
		c-0.03,0.94-0.27,1.7-0.71,2.28c-0.44,0.58-1.18,1.14-2.23,1.66c0.96,0.48,1.65,0.95,2.09,1.41c0.82,0.87,1.21,2.03,1.16,3.46
		C437.52,573.99,436.74,575.44,435.25,576.43z M466.02,575.37c-0.17-0.39-0.36-0.65-0.58-0.79c-0.22-0.14-0.51-0.18-0.87-0.12
		l-18.12,2.8l-0.07-0.49c0.39-0.17,0.65-0.36,0.79-0.58c0.14-0.22,0.18-0.51,0.12-0.87l-2.46-15.91c-0.05-0.36-0.18-0.62-0.37-0.78
		c-0.19-0.16-0.51-0.27-0.94-0.33l-0.08-0.49l17.58-2.72c0.37-0.06,0.64-0.18,0.81-0.37c0.17-0.19,0.27-0.5,0.33-0.94l0.47-0.07
		l0.89,5.75l-0.47,0.07c-0.18-0.4-0.38-0.67-0.59-0.8c-0.22-0.13-0.51-0.17-0.88-0.11l-11.81,1.83l0.66,4.27l7.33-1.13
		c0.36-0.06,0.62-0.18,0.79-0.37c0.17-0.19,0.28-0.5,0.34-0.94l0.47-0.07l0.87,5.61l-0.47,0.07c-0.18-0.39-0.38-0.66-0.59-0.79
		s-0.51-0.17-0.88-0.12l-7.33,1.13l0.73,4.74l12.35-1.91c0.36-0.06,0.62-0.18,0.79-0.37c0.17-0.19,0.28-0.5,0.32-0.94l0.49-0.07
		l0.89,5.75L466.02,575.37z M492.56,566.99c-0.25-0.36-0.49-0.59-0.73-0.68c-0.24-0.09-0.53-0.08-0.89,0.05l-15.93,5.51l-0.16-0.47
		c0.35-0.23,0.58-0.47,0.67-0.72c0.09-0.24,0.08-0.54-0.04-0.88l-5.26-15.22c-0.12-0.34-0.29-0.58-0.5-0.7
		c-0.21-0.12-0.54-0.18-0.99-0.16l-0.16-0.46l6.58-2.28l0.16,0.47c-0.36,0.25-0.59,0.49-0.68,0.73c-0.09,0.24-0.08,0.53,0.04,0.87
		l4.69,13.54l10.42-3.6c0.35-0.12,0.59-0.29,0.72-0.5c0.12-0.21,0.18-0.54,0.16-0.99l0.45-0.16l1.9,5.5L492.56,566.99z
		 M516.65,554.4c-0.31-0.31-0.58-0.49-0.83-0.54c-0.25-0.05-0.54,0.02-0.86,0.2l-14.73,8.19l-0.24-0.43
		c0.31-0.29,0.49-0.57,0.54-0.82c0.05-0.26-0.01-0.54-0.19-0.86l-7.83-14.07c-0.18-0.32-0.38-0.52-0.62-0.6
		c-0.24-0.08-0.57-0.08-1,0.01l-0.24-0.43l6.08-3.38l0.24,0.43c-0.31,0.31-0.49,0.58-0.54,0.83c-0.05,0.25,0.01,0.53,0.19,0.85
		l6.96,12.52l9.63-5.36c0.33-0.18,0.53-0.39,0.62-0.62c0.09-0.23,0.08-0.57-0.01-1l0.41-0.23l2.83,5.08L516.65,554.4z
		 M531.71,542.17c-2.16,1.79-4.17,2.9-6.04,3.34c-1.35,0.32-2.57,0.18-3.66-0.42c-1-0.54-2-1.42-3.01-2.64l-6.65-8.02
		c-0.23-0.28-0.47-0.44-0.72-0.48c-0.25-0.04-0.57,0.03-0.98,0.2l-0.31-0.38l5.36-4.44l0.31,0.38c-0.25,0.36-0.38,0.67-0.38,0.92
		c0,0.25,0.12,0.52,0.35,0.8l6.05,7.29c0.7,0.85,1.32,1.44,1.84,1.76c0.52,0.33,1.09,0.48,1.7,0.46c1.23-0.03,2.54-0.62,3.94-1.78
		c1.4-1.16,2.23-2.34,2.48-3.54c0.12-0.59,0.07-1.17-0.16-1.74c-0.23-0.57-0.7-1.28-1.4-2.13l-6.05-7.29
		c-0.23-0.28-0.47-0.44-0.71-0.49c-0.24-0.04-0.57,0.02-0.99,0.2l-0.31-0.38l5.05-4.18l0.31,0.38c-0.25,0.36-0.38,0.67-0.38,0.92
		c0,0.25,0.11,0.52,0.34,0.8l6.65,8.02c1.52,1.83,2.27,3.47,2.26,4.93C536.56,537,534.93,539.5,531.71,542.17z M558.49,513.1
		l-0.39-0.3c0.17-0.39,0.23-0.71,0.18-0.97c-0.05-0.26-0.22-0.5-0.51-0.72l-8.78-6.88l5.51,13.97l-14.62-2.33l8.77,6.87
		c0.29,0.22,0.56,0.33,0.81,0.32c0.25-0.01,0.56-0.14,0.92-0.39l0.39,0.3l-4.03,5.15l-0.39-0.3c0.17-0.39,0.23-0.71,0.18-0.97
		c-0.05-0.26-0.22-0.5-0.51-0.72l-12.68-9.93c-0.29-0.22-0.56-0.33-0.81-0.32c-0.25,0.01-0.56,0.15-0.91,0.41l-0.39-0.3l5.13-6.55
		l0.39,0.3c-0.2,0.54-0.11,0.97,0.28,1.27c0.38,0.3,0.96,0.5,1.75,0.62l10.04,1.62l-3.86-9.31c-0.38-1.01-0.73-1.64-1.03-1.88
		c-0.38-0.3-0.8-0.26-1.25,0.12l-0.39-0.3l5-6.38l0.39,0.3c-0.17,0.4-0.23,0.73-0.18,0.98c0.05,0.25,0.22,0.48,0.51,0.71l12.66,9.92
		c0.28,0.22,0.56,0.33,0.81,0.33c0.26-0.01,0.56-0.14,0.92-0.4l0.39,0.3L558.49,513.1z M555.96,355.65
		c1.08-0.09,1.78-0.24,2.09-0.47c0.39-0.28,0.47-0.69,0.24-1.23l0.4-0.29l4.75,6.57l-0.4,0.29c-0.34-0.27-0.64-0.42-0.89-0.44
		c-0.25-0.02-0.53,0.08-0.82,0.29l-13.04,9.42c-0.29,0.21-0.47,0.44-0.54,0.69c-0.07,0.25-0.02,0.58,0.13,0.99l-0.4,0.29l-4.08-5.64
		l0.4-0.29c0.33,0.27,0.62,0.42,0.88,0.44c0.26,0.02,0.54-0.08,0.83-0.29l9.04-6.54l-14.95,1.42l6.29-13.41l-9.03,6.53
		c-0.29,0.21-0.47,0.44-0.53,0.69s-0.02,0.58,0.12,1l-0.4,0.29l-3.83-5.3l0.4-0.29c0.33,0.27,0.62,0.42,0.88,0.44
		s0.54-0.07,0.83-0.29l13.05-9.43c0.29-0.21,0.47-0.44,0.53-0.69c0.06-0.25,0.01-0.57-0.14-0.99l0.4-0.29l4.87,6.74l-0.4,0.29
		c-0.46-0.34-0.9-0.37-1.3-0.08c-0.39,0.28-0.75,0.79-1.07,1.51l-4.34,9.2L555.96,355.65z"/>
</g>
</svg>
